<?xml version="1.0" encoding="UTF-8" standalone="no"?>
<svg
   xmlns:dc="http://purl.org/dc/elements/1.1/"
   xmlns:cc="http://creativecommons.org/ns#"
   xmlns:rdf="http://www.w3.org/1999/02/22-rdf-syntax-ns#"
   xmlns:svg="http://www.w3.org/2000/svg"
   xmlns="http://www.w3.org/2000/svg"
   xmlns:sodipodi="http://sodipodi.sourceforge.net/DTD/sodipodi-0.dtd"
   xmlns:inkscape="http://www.inkscape.org/namespaces/inkscape"
   width="750"
   height="750"
   version="1.1"
   id="svg12"
   sodipodi:docname="AnyConv.com__IMG_5514.svg"
   inkscape:version="1.0.1 (3bc2e813f5, 2020-09-07)">
  <metadata
     id="metadata18">
    <rdf:RDF>
      <cc:Work
         rdf:about="">
        <dc:format>image/svg+xml</dc:format>
        <dc:type
           rdf:resource="http://purl.org/dc/dcmitype/StillImage" />
      </cc:Work>
    </rdf:RDF>
  </metadata>
  <defs
     id="defs16" />
  <sodipodi:namedview
     pagecolor="#ffffff"
     bordercolor="#666666"
     borderopacity="1"
     objecttolerance="10"
     gridtolerance="10"
     guidetolerance="10"
     inkscape:pageopacity="0"
     inkscape:pageshadow="2"
     inkscape:window-width="1920"
     inkscape:window-height="1017"
     id="namedview14"
     showgrid="false"
     inkscape:zoom="1.1333333"
     inkscape:cx="409.46127"
     inkscape:cy="359.72797"
     inkscape:window-x="-8"
     inkscape:window-y="-8"
     inkscape:window-maximized="1"
     inkscape:current-layer="svg12" />
  <path
     style="fill:#4d946d; stroke:none;"
     d="M347 393C338.252 414.012 320.817 429.078 307.375 447C297.372 460.338 289.629 474.838 280.939 489C265.325 514.446 249.904 540.134 244.615 570C242.418 582.407 243.037 594.542 243.91 607C244.608 616.95 245.745 626.957 250.374 636C263.278 661.204 294.042 669 320 669C339.793 669 360.739 668.981 380 663.845C413.737 654.849 443.831 634.165 473 616C473.92 660.585 517.045 681.827 557 672.324C584.693 665.737 607.933 638.155 626.17 618C632.81 610.662 641.049 604.417 644.906 595C660.657 556.542 613.613 526.371 583 551.464C569.967 562.148 560.144 576.296 547 587C547 563.8 546.383 532.013 535.626 511C526.104 492.4 502.761 485.011 484 493.518C463.738 502.705 453.046 528.42 437.714 543.576C406.565 574.365 363.107 592 320 592C320.122 577.307 327.341 564.791 333.753 552C349.649 520.289 371.012 493.602 392.789 466C418.132 433.878 435.59 392.044 443.6 352C451.985 310.085 447.192 264.285 436.873 223C432.206 204.324 425.55 184.315 413.482 169C394.943 145.471 357.704 131 328 131C313.204 131 298.084 133.687 284 138.194C252.388 148.311 227.004 170.996 204 194C170.62 227.38 142.112 261.455 122.862 305C99.0514 358.862 108.507 441.489 172 462.996C179.985 465.701 188.536 467.778 197 467.985C253.823 469.378 308.263 430.938 347 393z"
     id="path4" />
  <path
     style="fill:#ff8484; stroke:none;"
     d="M225 335.637C207.141 340.683 205.965 360.032 209.911 375C211.811 382.205 213.014 395.393 223.999 392.562C228.374 391.434 230.5 387.506 233.374 384.424C243.086 374.011 245.003 366.016 242.866 352C241.47 342.849 235.824 332.579 225 335.637z"
     id="path6" />
  <path
     style="fill:#000000; stroke:none;"
     d="M347 392L348 393L347 392z"
     id="path8" />
  <path
     style="fill:#ff8484; stroke:none;"
     d="M160 458C156.781 473.596 155.96 494.499 150.076 509C146.167 518.635 136.083 527.266 135.204 538C134.742 543.655 140.673 548.701 145.273 543.566C149.952 538.344 154.587 527.63 157 521L158 521C158.534 527.113 160.72 536.916 164.818 541.682C167.665 544.993 173.9 544.392 175.303 539.941C177.193 533.949 170.926 524.89 169.669 519C168.989 515.812 169.509 512.128 168.258 509.104C167.128 506.371 164.093 504.982 163.745 501.896C162.282 488.917 170.434 474.972 171 462L160 458z"
     id="path10" />
</svg>
